# xmcd
#
# Track frame offsets:
#	150
#	16762
#	30182
#	45025
#	61825
#	78150
#	94677
#	107697
#	122030
#	135822
#	151560
#	165940
#	183585
#	197347
#	211972
#	229684
#	241995
#
# Disc length: 3485 seconds
#
# Revision: 0
# Processed by: cddbd v1.5.2PL0 Copyright (c) Steve Scherf et al.
# Submitted via: audiograbber 1.83.01
#
DISCID=ae0d9b11
DTITLE=Anne Murray - Anne Murray
DYEAR=2007
DGENRE=Karaoke
TTITLE0=Anne Murray - You Needed Me
TTITLE1=Anne Murray - Love Song
TTITLE2=Anne Murray - Could I Have This Dance
TTITLE3=Anne Murray - Nobody Loves Me Like You Do
TTITLE4=Anne Murray - Sweet Little Jesus Boy
TTITLE5=Anne Murray - There Goes My Everything
TTITLE6=Anne Murray - Cotton Jenny
TTITLE7=Anne Murray - Put Your Hand In The Hand
TTITLE8=Anne Murray - I'll Be Your Baby Tonight
TTITLE9=Anne Murray - A Little Good News
TTITLE10=Anne Murray - Blessed Are The Believers
TTITLE11=Anne Murray - Broken Hearted Me
TTITLE12=Anne Murray - He Thinks I Still Care
TTITLE13=Anne Murray - Son Of A Rotten Gambler
TTITLE14=Anne Murray - I Can See Arkansas
TTITLE15=Anne Murray - I Just Fall In Love Again
TTITLE16=Anne Murray - A Stranger In My Place
EXTD=
EXTT0=
EXTT1=
EXTT2=
EXTT3=
EXTT4=
EXTT5=
EXTT6=
EXTT7=
EXTT8=
EXTT9=
EXTT10=
EXTT11=
EXTT12=
EXTT13=
EXTT14=
EXTT15=
EXTT16=
PLAYORDER=
